<?xml version="1.0" encoding="utf-8"?>
<!-- Generator: Adobe Illustrator 24.0.0, SVG Export Plug-In . SVG Version: 6.00 Build 0)  -->
<svg version="1.1" xmlns="http://www.w3.org/2000/svg" xmlns:xlink="http://www.w3.org/1999/xlink" x="0px" y="0px"
	 viewBox="0 0 24 24" style="enable-background:new 0 0 24 24;" xml:space="preserve">
<g id="Layer_1">
	<path d="M15.5,19h-2.3l-1.4-6.1l-2.5,0.6C9.2,14,9,14.4,8.8,14.8c-0.9,1.5-2.8,1.9-4.3,1s-1.9-2.8-1-4.3s2.8-1.9,4.3-1
		c0.4,0.2,0.7,0.6,0.9,0.9l2.5-0.6l-0.6-2.5C10.2,8.2,9.8,8,9.4,7.8C8,6.9,7.5,5,8.4,3.5c0.9-1.5,2.8-1.9,4.3-1s1.9,2.8,1,4.3
		c-0.2,0.4-0.6,0.7-0.9,0.9L15.5,19 M7,11.8c-0.7-0.5-1.7-0.2-2.2,0.5S4.6,14,5.3,14.4C6,14.9,7,14.7,7.5,13.9
		C7.9,13.2,7.7,12.2,7,11.8 M12.4,6c0.5-0.7,0.2-1.7-0.5-2.2c-0.7-0.5-1.7-0.2-2.2,0.5C9.3,5,9.5,6,10.3,6.5C11,6.9,12,6.7,12.4,6
		 M12.8,11.3c-0.2-0.1-0.4-0.1-0.5,0.1c-0.1,0.2-0.1,0.4,0.1,0.5c0.2,0.1,0.4,0.1,0.5-0.1C13.1,11.6,13,11.4,12.8,11.3 M21,8.5
		L14.5,10l0.5,2.2l7.5-1.8L23,9.7L21,8.5"/>
	<polyline points="15.5,19 13.9,12.5 11.8,12.9 13.5,20.5 14.2,21 15.5,19 	"/>
</g>
<g id="Layer_2">
	<rect x="1" y="19" width="4" height="2"/>
	<rect x="7" y="19" width="4" height="2"/>
	<rect x="19" y="19" width="4" height="2"/>
	<rect x="13" y="19" width="4" height="2"/>
</g>
</svg>
